<?xml version="1.0" standalone="no"?>
<!DOCTYPE svg PUBLIC "-//W3C//DTD SVG 20010904//EN"
 "http://www.w3.org/TR/2001/REC-SVG-20010904/DTD/svg10.dtd">
<svg version="1.0" xmlns="http://www.w3.org/2000/svg"
 width="289.000000pt" height="185.000000pt" viewBox="0 0 289.000000 185.000000"
 preserveAspectRatio="xMidYMid meet">

<g transform="translate(0.000000,185.000000) scale(0.100000,-0.100000)"
fill="#000000" stroke="none">
<path d="M1452 922 c-101 -36 -171 -135 -159 -223 7 -50 24 -70 109 -125 101
-65 117 -103 72 -172 -34 -53 -148 -77 -219 -48 -34 14 -34 14 -54 -20 -12
-19 -21 -39 -21 -44 0 -37 235 -48 310 -14 100 46 150 115 150 207 0 67 -18
92 -103 143 -91 55 -107 71 -107 114 0 90 117 148 215 106 29 -12 31 -11 53
21 13 19 22 36 20 37 -41 36 -189 45 -266 18z"/>
<path d="M1995 926 c-100 -31 -170 -96 -220 -201 -42 -89 -56 -151 -57 -242 0
-93 14 -134 62 -176 70 -64 206 -73 316 -21 150 71 262 343 213 519 -14 51
-73 110 -124 124 -52 14 -140 13 -190 -3z m158 -92 c46 -45 44 -137 -4 -286
-42 -129 -102 -196 -183 -205 -37 -5 -48 -1 -76 24 -26 24 -33 39 -37 79 -9
95 60 306 119 361 62 58 139 70 181 27z"/>
<path d="M2397 603 c-42 -181 -77 -331 -77 -335 0 -5 83 -8 185 -8 l185 0 6
28 c3 15 7 33 10 40 2 9 -24 12 -111 12 -64 0 -115 4 -115 9 0 10 37 171 46
204 5 15 19 17 110 17 76 0 104 3 104 13 0 6 3 22 6 35 6 22 5 22 -95 22 -55
0 -101 3 -101 7 0 4 10 52 22 105 l22 98 117 0 117 0 10 40 10 40 -187 0 -187
0 -77 -327z"/>
</g>
</svg>
